<svg id="Layer_1" data-name="Layer 1" xmlns="http://www.w3.org/2000/svg" viewBox="0 0 237.993 72.367">
  <defs>
    <style>
      .cls-1, .cls-2 {
        fill: #fff;
      }

      .cls-1, .cls-3, .cls-4, .cls-5 {
        fill-rule: evenodd;
      }

      .cls-3 {
        fill: #d695b6;
      }

      .cls-4 {
        fill: #f6c332;
      }

      .cls-5 {
        fill: #d5d62f;
      }
    </style>
  </defs>
  <title>e8f121a6-def1-4f0b-8ab8-d6d39f58f12a</title>
  <g id="Merah">
    <path class="cls-1" d="M135.917,43.3C137.055,53.054,157,54.258,159,42.96V29.835c-2-11.621-21.134-11.214-23.075.069-0.065,6.208-.008,7.257-0.008,13.392h0Zm6.829-1.262c0-3.739-.023-7.408,0-11.192C142.98,26.214,152,26.017,152,30.9v11.08C152,46.859,142.977,46.66,142.746,42.033Z"/>
    <path class="cls-1" d="M117.341,20.971a12.684,12.684,0,0,1,5.493,1.234l-0.248-.219c1.205-.759,2.478-1.518,3.683-2.278,0.995-.557,1.732-0.341,2.732.405v4.823a2.4,2.4,0,0,1-1.241,1.58l-0.07-.032a10.223,10.223,0,0,1,1.7,5.3C129.385,37.675,124,42.466,118,42.6v2.187c5-.045,8.606,1.623,10.131,4.4,2.266,4.3,1.547,9.712-5.326,13.279-4.088,2.036-12.153,1.391-17.021-2.427-0.953-.747,1.423-5.708,3.182-4.821,5.175,2.609,8.692,3.292,11.171,2.059,1.929-1.345,2.464-2.221,1.5-4.574-0.578-1.052-2.85-1.981-5.726-1.981H112.2a2.3,2.3,0,0,1-2.2-1.888V40.956a3.527,3.527,0,0,1,.279-0.327,10.442,10.442,0,0,1-4.9-8.843c0-5.972,5.425-10.816,11.959-10.816h0Zm0,6.282a4.763,4.763,0,0,0-4.961,4.533,4.981,4.981,0,0,0,9.921,0A4.761,4.761,0,0,0,117.342,27.253Z"/>
    <g>
      <rect class="cls-2" x="87" y="9.724" width="7" height="6"/>
      <path class="cls-1" d="M87,22.788v19.7c1,8.022,9.609,10.168,16.175,8.179a7.565,7.565,0,0,0,2.867-1.743,0.441,0.441,0,0,0,.077-0.406c-0.231-1.345-1.963-3.518-3.09-4.417a0.576,0.576,0,0,0-.7,0C98.941,46.456,95,45.582,94,41.147V23.055a1.416,1.416,0,0,0-1.173-1.332h-5.5C87.01,21.724,87,22.464,87,22.788Z"/>
    </g>
    <path class="cls-1" d="M71.253,9.724h4.682A0.959,0.959,0,0,1,77,10.78V49.4a1.181,1.181,0,0,1-1.065,1.321H71.253a1.216,1.216,0,0,1-.827-0.369c-6.416,2.133-15.027.32-16.612-6.371,0-4.831.011-9.622,0.158-14.448C55.4,21.81,64,19.843,70,22.015V10.78a1.112,1.112,0,0,1,1.253-1.056h0ZM61,30.7V41.952c0,4.482,8,4.547,9,0V30.7C69,26.153,61,26.217,61,30.7Z"/>
    <path class="cls-2" d="M47,49.493a0.92,0.92,0,0,1-.166.528,1.25,1.25,0,0,1-.558.365,4.325,4.325,0,0,1-1.064.224,15.221,15.221,0,0,1-1.665.081,15.531,15.531,0,0,1-1.693-.081,4.321,4.321,0,0,1-1.063-.224,1.393,1.393,0,0,1-.593-0.365,0.948,0.948,0,0,1-.2-0.528V34.352a13.825,13.825,0,0,0-.226-3.036c-0.489-2.008-1.7-4.015-4.76-3.972C32.44,27.38,31,27.717,30,31.854V49.493a0.906,0.906,0,0,1,.067.528,0.852,0.852,0,0,1-.451.365,4.082,4.082,0,0,1-1.006.224,16.987,16.987,0,0,1-3.315,0,4.448,4.448,0,0,1-1.056-.224,0.511,0.511,0,0,1-.318-0.365A0.919,0.919,0,0,1,24,49.493V22.958a1.131,1.131,0,0,1-.1-0.518,0.684,0.684,0,0,1,.377-0.376,3.068,3.068,0,0,1,.861-0.223,10.464,10.464,0,0,1,1.389-.071,11.354,11.354,0,0,1,1.443.071,2.935,2.935,0,0,1,.886.223,0.985,0.985,0,0,1,.448.376,0.952,0.952,0,0,1,.139.518h0c0.234-.271,1.959-2.4,8.538-1.7,1.206,0.128,5.037,1.225,6.725,3.673a9.083,9.083,0,0,1,1.82,3.232A22.3,22.3,0,0,1,47,33.1v16.39Z"/>
    <rect class="cls-2" y="9.724" width="7" height="5"/>
    <path class="cls-1" d="M0,22.659v19.7c1,8.022,9.958,10.168,16.524,8.179a8.263,8.263,0,0,0,3.041-1.743,0.473,0.473,0,0,0,.164-0.406,9.872,9.872,0,0,0-3.046-4.417,1.172,1.172,0,0,0-1.024,0C12.268,46.327,8,45.453,7,41.018V22.926c0-.591.113-1.2-0.476-1.2h-5.5A1.5,1.5,0,0,0,0,22.659Z"/>
    <g>
      <path class="cls-3" d="M186.765,29.759c-13.984,1.137-22.707,6.755-27.071,16.082-2.165,5.954,6.009,8.373,9.111,2.683C175.629,34.763,180.539,31.542,186.765,29.759Z"/>
      <path class="cls-4" d="M196.543,29.021c-10.485-10.956-23.876-13.654-34.505-10.185-11.343,3.721-14.688,17.315,3.758,11.39C178.631,24.136,189.014,24.914,196.543,29.021Z"/>
      <path class="cls-5" d="M200.649,31.035c3.6-12.406,1.172-25.076-8.912-29.289-9.474-5.65-23.256,3.627-8.587,10.594C196.468,16.452,200.066,23.828,200.649,31.035Z"/>
      <path class="cls-5" d="M188.476,40.323c1.507,10.282,11.222,18.8,20.008,18.52,11.227,0.408,16.555-10.441,2.449-10.319C197.807,49.522,191.31,45.4,188.476,40.323Z"/>
      <path class="cls-4" d="M202.586,35.846c14.742-7.5,20.018-14.894,20.5-23.506,0.5-9.2-9.672-11.834-11.164.6C212.077,25.167,208.508,30.106,202.586,35.846Z"/>
      <path class="cls-3" d="M194.532,39.815c16.5,6.483,29.649,4.777,39.548-4.025,8.5-7.641,2.046-15.552-8.729-7.288C209.956,40.327,202.912,40.692,194.532,39.815Z"/>
      <path class="cls-4" d="M188.426,33.279c-10.833,7.039-18.746,24.225-13.864,34,3.724,8.06,17.885,6.987,13.416-6.427C181.706,47.274,183.358,39.758,188.426,33.279Z"/>
    </g>
    <g>
      <path class="cls-2" d="M14.353,59.952a0.531,0.531,0,0,1-.106.113,0.252,0.252,0,0,1-.153.04,0.378,0.378,0,0,1-.216-0.083,3.111,3.111,0,0,0-.3-0.183,2.5,2.5,0,0,0-.435-0.183,2.317,2.317,0,0,0-1.5.093,1.7,1.7,0,0,0-.635.509,2.3,2.3,0,0,0-.386.8,3.994,3.994,0,0,0-.129,1.057,3.859,3.859,0,0,0,.14,1.087,2.355,2.355,0,0,0,.392.8,1.676,1.676,0,0,0,.615.492,1.892,1.892,0,0,0,.814.169,2.085,2.085,0,0,0,.711-0.1,2.153,2.153,0,0,0,.465-0.229,3.347,3.347,0,0,0,.306-0.229A0.367,0.367,0,0,1,14.18,64a0.249,0.249,0,0,1,.226.113l0.332,0.432a2.553,2.553,0,0,1-1.1.787,3.879,3.879,0,0,1-1.389.249,2.939,2.939,0,0,1-1.173-.232,2.67,2.67,0,0,1-.94-0.675,3.2,3.2,0,0,1-.628-1.086,4.363,4.363,0,0,1-.229-1.468,4.433,4.433,0,0,1,.21-1.39,3.136,3.136,0,0,1,.612-1.1,2.774,2.774,0,0,1,.994-0.722,3.349,3.349,0,0,1,1.356-.259,3.2,3.2,0,0,1,1.249.23,2.981,2.981,0,0,1,.964.648Z"/>
      <path class="cls-2" d="M16,65.724v-7h0.646a0.371,0.371,0,0,1,.266.09,0.476,0.476,0,0,1,.1.261l0.08,1.054a3.066,3.066,0,0,1,.854-1.1,2.012,2.012,0,0,1,1.7-.332,1.763,1.763,0,0,1,.419.177l-0.153.884a0.2,0.2,0,0,1-.206.167,1.043,1.043,0,0,1-.286-0.063,1.808,1.808,0,0,0-.538-0.063,1.732,1.732,0,0,0-1.109.359A1.658,1.658,0,0,0,17,61.2v4.522H16Z"/>
      <path class="cls-2" d="M23.99,58.649a3.013,3.013,0,0,1,1.117.2,2.515,2.515,0,0,1,.884.585,2.669,2.669,0,0,1,.582.944,3.653,3.653,0,0,1,.209,1.28c0,0.186-.02.109-0.06,0.171a0.778,0.778,0,0,1-.226-0.108h-4.48a2.724,2.724,0,0,0,.173,1.311,2.79,2.79,0,0,0,.438.889,1.9,1.9,0,0,0,.665.522,2.283,2.283,0,0,0,.864.181,2.565,2.565,0,0,0,.768-0.091,3.637,3.637,0,0,0,.555-0.217,4.219,4.219,0,0,0,.389-0.219,0.508,0.508,0,0,1,.269-0.1,0.26,0.26,0,0,1,.226.114L26.7,64.545a2.272,2.272,0,0,1-.525.462,3.27,3.27,0,0,1-.655.322,4.176,4.176,0,0,1-.721.19,4.425,4.425,0,0,1-.738.063,3.419,3.419,0,0,1-1.286-.236,2.822,2.822,0,0,1-1.017-.691,3.17,3.17,0,0,1-.668-1.127,4.577,4.577,0,0,1-.239-1.542,3.925,3.925,0,0,1,.216-1.315,3.1,3.1,0,0,1,.621-1.06,2.866,2.866,0,0,1,.99-0.7A3.26,3.26,0,0,1,23.99,58.649Zm0.027,0.871a1.939,1.939,0,0,0-1.349.663,1.9,1.9,0,0,0-.612,1.54h3.662a1.136,1.136,0,0,0-.113-0.922,2.089,2.089,0,0,0-.332-0.675,1.6,1.6,0,0,0-.535-0.428A1.814,1.814,0,0,0,24.017,59.52Z"/>
      <path class="cls-2" d="M33,65.724H32.71a0.676,0.676,0,0,1-.279-0.171,0.434,0.434,0,0,1-.139-0.285l-0.133-.654c-0.177.16-.35,0.288-0.518,0.414a2.917,2.917,0,0,1-.532.312,2.73,2.73,0,0,1-.6.192,3.427,3.427,0,0,1-.7.065,2.393,2.393,0,0,1-.734-0.111,1.675,1.675,0,0,1-.595-0.331,1.572,1.572,0,0,1-.4-0.557,1.955,1.955,0,0,1-.15-0.8,1.49,1.49,0,0,1,.219-0.77,1.935,1.935,0,0,1,.708-0.657A4.34,4.34,0,0,1,30.1,61.9a7.07,7.07,0,0,1,1.9-.183V61.192A1.837,1.837,0,0,0,31.7,60a1.179,1.179,0,0,0-.976-0.4,2.064,2.064,0,0,0-.719.109,2.741,2.741,0,0,0-.507.246c-0.144.091-.266,0.173-0.37,0.246a0.531,0.531,0,0,1-.308.11,0.354,0.354,0,0,1-.209-0.063,0.487,0.487,0,0,1-.142-0.156l-0.213-.379a3.85,3.85,0,0,1,1.2-.8,3.723,3.723,0,0,1,1.429-.266,2.552,2.552,0,0,1,1,.186,2.059,2.059,0,0,1,.738.518,2.035,2.035,0,0,1,.334.8A3.465,3.465,0,0,1,33,61.182v4.542Zm-2.835-.959a2.429,2.429,0,0,0,.572-0.063,2.238,2.238,0,0,0,.488-0.18,2.31,2.31,0,0,0,.4-0.283A0.789,0.789,0,0,0,32,63.861v-1.39s-0.972.035-1.353,0.1a3.723,3.723,0,0,0-.912.271,1.264,1.264,0,0,0-.513.394,0.848,0.848,0,0,0-.158.508,1.124,1.124,0,0,0,.089.462,0.877,0.877,0,0,0,.234.317,0.916,0.916,0,0,0,.346.181A1.572,1.572,0,0,0,30.165,64.764Z"/>
      <path class="cls-2" d="M37.07,65.6a2.165,2.165,0,0,1-1.434-.445A1.9,1.9,0,0,1,35,63.867V59.724H34.6a0.957,0.957,0,0,1-.355-0.052A0.491,0.491,0,0,1,34,59.487V59.015l1.279-.139L35.64,56.8a0.2,0.2,0,0,1,.13-0.085,0.444,0.444,0,0,1,.23.014h1v2h2v1H37v4.064a0.957,0.957,0,0,0,.005.632,0.509,0.509,0,0,0,.431.206,0.651,0.651,0,0,0,.272-0.05,1.067,1.067,0,0,0,.211-0.109c0.067-.04.11-0.077,0.157-0.109a0.205,0.205,0,0,1,.117-0.05,0.2,0.2,0,0,1,.163.113L38.7,64.984a2.214,2.214,0,0,1-.738.449A2.507,2.507,0,0,1,37.07,65.6Z"/>
      <path class="cls-2" d="M41.57,56.643a0.752,0.752,0,0,1-.07.322,0.94,0.94,0,0,1-.186.266,0.87,0.87,0,0,1-.269.182,0.81,0.81,0,0,1-.326.067,0.786,0.786,0,0,1-.322-0.067,0.883,0.883,0,0,1-.449-0.449,0.784,0.784,0,0,1-.066-0.322,0.836,0.836,0,0,1,.066-0.33,0.849,0.849,0,0,1,.183-0.272,0.86,0.86,0,0,1,.266-0.183,0.776,0.776,0,0,1,.322-0.066,0.8,0.8,0,0,1,.326.066,0.852,0.852,0,0,1,.269.183,0.906,0.906,0,0,1,.186.272A0.8,0.8,0,0,1,41.57,56.643ZM41,58.724v7H40v-7h1Z"/>
      <path class="cls-2" d="M42.54,58.724h0.97a0.377,0.377,0,0,1,.233.09,0.437,0.437,0,0,1,.133.18l1.708,4.338a3.315,3.315,0,0,1,.146.481c0.035,0.159.069,0.317,0.1,0.472,0.035-.155.073-0.312,0.113-0.471a3.944,3.944,0,0,1,.153-0.479L47.824,59a0.443,0.443,0,0,1,.13-0.192,0.363,0.363,0,0,1,.223-0.086H49.1l-2.745,7h-1.07Z"/>
      <path class="cls-2" d="M52.689,58.649a3.013,3.013,0,0,1,1.117.2,2.516,2.516,0,0,1,.884.585,2.669,2.669,0,0,1,.582.944,3.653,3.653,0,0,1,.209,1.28c0,0.186-.02.109-0.06,0.171a0.778,0.778,0,0,1-.226-0.108h-4.48a2.724,2.724,0,0,0,.173,1.311,2.79,2.79,0,0,0,.438.889,1.9,1.9,0,0,0,.665.522,2.283,2.283,0,0,0,.864.181,2.565,2.565,0,0,0,.768-0.091,3.637,3.637,0,0,0,.555-0.217,4.219,4.219,0,0,0,.389-0.219,0.508,0.508,0,0,1,.269-0.1,0.26,0.26,0,0,1,.226.114l0.332,0.432a2.272,2.272,0,0,1-.525.462,3.271,3.271,0,0,1-.655.322,4.176,4.176,0,0,1-.721.19,4.426,4.426,0,0,1-.738.063,3.419,3.419,0,0,1-1.286-.236,2.822,2.822,0,0,1-1.017-.691,3.17,3.17,0,0,1-.668-1.127,4.576,4.576,0,0,1-.239-1.542,3.925,3.925,0,0,1,.216-1.315,3.1,3.1,0,0,1,.621-1.06,2.866,2.866,0,0,1,.99-0.7A3.26,3.26,0,0,1,52.689,58.649Zm0.027,0.871a1.939,1.939,0,0,0-1.349.663,1.9,1.9,0,0,0-.612,1.54h3.662A1.136,1.136,0,0,0,54.3,60.8a2.09,2.09,0,0,0-.332-0.675,1.6,1.6,0,0,0-.535-0.428A1.815,1.815,0,0,0,52.716,59.52Z"/>
      <path class="cls-2" d="M60,65.724v-7h0.259a0.315,0.315,0,0,1,.319.262l0.093,0.739a3.768,3.768,0,0,1,.981-0.781,2.548,2.548,0,0,1,1.253-.3,2.424,2.424,0,0,1,.974.185,1.884,1.884,0,0,1,.7.518,2.191,2.191,0,0,1,.35.808A3.605,3.605,0,0,1,65,61.2v4.522H64V61.2a1.814,1.814,0,0,0-.362-1.186,1.317,1.317,0,0,0-1.073-.422,1.547,1.547,0,0,0-.853.252A1.145,1.145,0,0,0,61,60.53v5.193H60Z"/>
      <path class="cls-2" d="M72,65.724H71.365a0.677,0.677,0,0,1-.279-0.171,0.433,0.433,0,0,1-.139-0.285l-0.133-.654c-0.177.16-.35,0.288-0.518,0.414a2.917,2.917,0,0,1-.532.312,2.731,2.731,0,0,1-.6.192,3.427,3.427,0,0,1-.7.065,2.394,2.394,0,0,1-.734-0.111,1.676,1.676,0,0,1-.595-0.331,1.572,1.572,0,0,1-.4-0.557,1.955,1.955,0,0,1-.15-0.8,1.49,1.49,0,0,1,.219-0.77,1.934,1.934,0,0,1,.708-0.657,5.754,5.754,0,0,1,1.416-.47A8.626,8.626,0,0,1,71,61.721V61.192A1.861,1.861,0,0,0,70.528,60a1.366,1.366,0,0,0-1.062-.4,2.332,2.332,0,0,0-.762.109,2.985,2.985,0,0,0-.529.246c-0.144.091-.277,0.173-0.381,0.246a0.546,0.546,0,0,1-.314.11,0.362,0.362,0,0,1-.211-0.063,0.491,0.491,0,0,1-.144-0.156l-0.213-.379a3.849,3.849,0,0,1,1.2-.8,3.722,3.722,0,0,1,1.429-.266,2.551,2.551,0,0,1,1,.186,2.058,2.058,0,0,1,.737.518,2.308,2.308,0,0,1,.507.8A3.345,3.345,0,0,1,72,61.182v4.542Zm-3.18-.959a2.429,2.429,0,0,0,.572-0.063,2.239,2.239,0,0,0,.488-0.18,3.826,3.826,0,0,0,.575-0.283A1.4,1.4,0,0,0,71,63.861v-1.39a6.412,6.412,0,0,0-1.525.1,4.57,4.57,0,0,0-1,.271,1.44,1.44,0,0,0-.556.394,0.869,0.869,0,0,0-.18.508,1.128,1.128,0,0,0,.078.462,0.866,0.866,0,0,0,.228.317,0.9,0.9,0,0,0,.343.181A1.553,1.553,0,0,0,68.82,64.764Z"/>
      <path class="cls-2" d="M75.726,65.6a1.708,1.708,0,0,1-1.261-.445A1.792,1.792,0,0,1,74,63.867V59.724H73.26a0.265,0.265,0,0,1-.183-0.052A0.221,0.221,0,0,1,73,59.487V59.015l1.107-.139L74.381,56.8c0.009-.066.039-0.043,0.087-0.085a0.3,0.3,0,0,1,.187.014H75v2h2v1H75v4.064a0.927,0.927,0,0,0,.333.632,0.874,0.874,0,0,0,.6.206,1.116,1.116,0,0,0,.354-0.05,1.533,1.533,0,0,0,.252-0.109c0.067-.04.131-0.077,0.177-0.109a0.232,0.232,0,0,1,.127-0.05,0.206,0.206,0,0,1,.168.113l0.347,0.565a2.208,2.208,0,0,1-.737.449A2.5,2.5,0,0,1,75.726,65.6Z"/>
      <path class="cls-2" d="M80.225,56.643a0.753,0.753,0,0,1-.07.322,0.94,0.94,0,0,1-.186.266,0.87,0.87,0,0,1-.269.182,0.81,0.81,0,0,1-.326.067,0.786,0.786,0,0,1-.322-0.067,0.884,0.884,0,0,1-.449-0.449,0.784,0.784,0,0,1-.066-0.322,0.836,0.836,0,0,1,.066-0.33,0.849,0.849,0,0,1,.183-0.272,0.859,0.859,0,0,1,.266-0.183,0.777,0.777,0,0,1,.322-0.066,0.8,0.8,0,0,1,.326.066,0.852,0.852,0,0,1,.269.183,0.906,0.906,0,0,1,.186.272A0.8,0.8,0,0,1,80.225,56.643ZM80,58.724v7H79v-7h1Z"/>
      <path class="cls-2" d="M84.771,58.649A3.463,3.463,0,0,1,86.1,58.9a2.808,2.808,0,0,1,1.01.7,3.1,3.1,0,0,1,.638,1.093,4.731,4.731,0,0,1,0,2.868,3.107,3.107,0,0,1-.638,1.09,2.779,2.779,0,0,1-1.01.695,3.783,3.783,0,0,1-2.665,0,2.806,2.806,0,0,1-1.013-.695,3.111,3.111,0,0,1-.645-1.09,4.668,4.668,0,0,1,0-2.868,3.1,3.1,0,0,1,.645-1.093,2.836,2.836,0,0,1,1.013-.7A3.463,3.463,0,0,1,84.771,58.649Zm0,6.009a1.729,1.729,0,0,0,1.489-.668,3.8,3.8,0,0,0,0-3.739,1.725,1.725,0,0,0-1.489-.671,2.069,2.069,0,0,0-.877.172,1.644,1.644,0,0,0-.621.5,2.221,2.221,0,0,0-.372.8,4.3,4.3,0,0,0-.123,1.073A4.258,4.258,0,0,0,82.9,63.2a2.178,2.178,0,0,0,.372.794,1.645,1.645,0,0,0,.621.5A2.059,2.059,0,0,0,84.771,64.658Z"/>
      <path class="cls-2" d="M89,65.724v-7h1.141a0.315,0.315,0,0,1,.319.262l0.093,0.739a3.766,3.766,0,0,1,.981-0.781,2.548,2.548,0,0,1,1.253-.3,2.424,2.424,0,0,1,.974.185,1.884,1.884,0,0,1,.7.518,2.27,2.27,0,0,1,.409.808A3.537,3.537,0,0,1,95,61.2v4.522H94V61.2a1.831,1.831,0,0,0-.421-1.186,1.382,1.382,0,0,0-1.1-.422,1.407,1.407,0,0,0-.808.252A1.065,1.065,0,0,0,91,60.53v5.193H89Z"/>
    </g>
  </g>
</svg>