<?xml version="1.0" standalone="no"?>
<!DOCTYPE svg PUBLIC "-//W3C//DTD SVG 20010904//EN"
 "http://www.w3.org/TR/2001/REC-SVG-20010904/DTD/svg10.dtd">
<svg version="1.0" xmlns="http://www.w3.org/2000/svg"
 width="57.000000pt" height="58.000000pt" viewBox="0 0 57.000000 58.000000"
 preserveAspectRatio="xMidYMid meet">
<metadata>
Created by potrace 1.13, written by Peter Selinger 2001-2015
</metadata>
<g transform="translate(0.000000,58.000000) scale(0.100000,-0.100000)"
fill="#fff" stroke="none">
<path d="M49 504 c-9 -11 -10 -20 -2 -32 9 -15 36 -17 233 -17 197 0 224 2
233 17 8 12 7 21 -2 32 -20 24 -442 24 -462 0z"/>
<path d="M68 334 c-19 -6 -30 -28 -22 -49 9 -23 54 -27 262 -23 158 2 194 6
202 18 12 19 12 21 0 40 -8 12 -44 15 -217 17 -114 1 -215 -1 -225 -3z"/>
<path d="M49 134 c-9 -11 -10 -20 -2 -32 9 -15 36 -17 233 -17 197 0 224 2
233 17 8 12 7 21 -2 32 -20 24 -442 24 -462 0z"/>
</g>
</svg>
